<svg xmlns="http://www.w3.org/2000/svg" xml:space="preserve" style="fill-rule:evenodd;clip-rule:evenodd;stroke-linecap:round;stroke-linejoin:round" viewBox="0 0 704 576"><path d="M12 8V4H8" style="fill:none;fill-rule:nonzero;stroke:#50fa7b;stroke-width:2px" transform="matrix(32 0 0 32 -31.992 -96)"/><path d="M20 8.063v11.874a.063.063 0 0 1-.062.063H4.063A.063.063 0 0 1 4 19.937V8.063C4 8.028 4.028 8 4.063 8h15.875c.034 0 .062.028.062.063" style="fill:none;stroke:#bd93f9;stroke-width:2px" transform="matrix(32 0 0 32 -31.992 -96)"/><path d="M2 14h2M20 14h2" style="fill:none;fill-rule:nonzero;stroke:#bd93f9;stroke-width:2px" transform="matrix(32 0 0 32 -31.992 -96)"/><path d="M15 13v2M9 13v2" style="fill:none;fill-rule:nonzero;stroke:#8be9fd;stroke-width:2px" transform="matrix(32 0 0 32 -31.992 -96)"/></svg>